# xmcd
#
# Track frame offsets: 
#        187
#        19690
#        38480
#        65832
#        79592
#        101442
#        125827
#        130527
#        147747
#        177530
#
# Disc length: 2481 seconds
#
# Revision: 2
# Processed by: cddbd v1.5.2PL0 Copyright (c) Steve Scherf et al.
# Submitted via: ExactAudioCopyFreeDBPlugin 1.0
#
DISCID=8a09af0a
DTITLE=村松健 - お天道さまのゆ・う・と・お・り
DYEAR=1999
DGENRE=New Age
TTITLE0=風の中で恋をして
TTITLE1=お天道さまのゆうとおり
TTITLE2=きらめく海へ駆けてゆこう
TTITLE3=海にいます
TTITLE4=Suuny Smiles ?無邪気に笑えたら?
TTITLE5=日時計
TTITLE6=ゆ・う・と・お・り
TTITLE7=木の葉の旅
TTITLE8=夕日のヤポネシア
TTITLE9=ねこの気持ち ?あくび?
EXTD=YEAR: 1999
EXTT0=
EXTT1=
EXTT2=
EXTT3=
EXTT4=
EXTT5=
EXTT6=
EXTT7=
EXTT8=
EXTT9=
PLAYORDER=
